<?xml version="1.0" encoding="UTF-8" standalone="no"?>
<!-- Created with Inkscape (http://www.inkscape.org/) -->

<svg
   width="165.55841mm"
   height="166.10667mm"
   viewBox="0 0 165.55841 166.10667"
   version="1.1"
   id="svg5"
   sodipodi:docname="hcSVG-white.svg"
   inkscape:version="1.1.1 (3bf5ae0d25, 2021-09-20)"
   xmlns:inkscape="http://www.inkscape.org/namespaces/inkscape"
   xmlns:sodipodi="http://sodipodi.sourceforge.net/DTD/sodipodi-0.dtd"
   xmlns="http://www.w3.org/2000/svg"
   xmlns:svg="http://www.w3.org/2000/svg">
  <sodipodi:namedview
     id="namedview7"
     pagecolor="#ffffff"
     bordercolor="#666666"
     borderopacity="1.0"
     inkscape:pageshadow="2"
     inkscape:pageopacity="0.0"
     inkscape:pagecheckerboard="0"
     inkscape:document-units="mm"
     showgrid="false"
     inkscape:zoom="0.77771465"
     inkscape:cx="306.02484"
     inkscape:cy="358.1005"
     inkscape:window-width="3440"
     inkscape:window-height="1369"
     inkscape:window-x="-8"
     inkscape:window-y="-8"
     inkscape:window-maximized="1"
     inkscape:current-layer="layer1" />
  <defs
     id="defs2">
    <filter
       style="color-interpolation-filters:sRGB;"
       inkscape:label="Colorize"
       id="filter1281"
       x="0"
       y="0"
       width="1"
       height="1">
      <feComposite
         in2="SourceGraphic"
         operator="arithmetic"
         k1="0"
         k2="0"
         result="composite1"
         id="feComposite1267" />
      <feColorMatrix
         in="composite1"
         values="1"
         type="saturate"
         result="colormatrix1"
         id="feColorMatrix1269" />
      <feFlood
         flood-opacity="1"
         flood-color="rgb(255,255,255)"
         result="flood1"
         id="feFlood1271" />
      <feBlend
         in="flood1"
         in2="colormatrix1"
         mode="multiply"
         result="blend1"
         id="feBlend1273" />
      <feBlend
         in2="blend1"
         mode="screen"
         result="blend2"
         id="feBlend1275" />
      <feColorMatrix
         in="blend2"
         values="1"
         type="saturate"
         result="colormatrix2"
         id="feColorMatrix1277" />
      <feComposite
         in="colormatrix2"
         in2="SourceGraphic"
         operator="in"
         k2="1"
         result="composite2"
         id="feComposite1279" />
    </filter>
  </defs>
  <g
     inkscape:label="Layer 1"
     inkscape:groupmode="layer"
     id="layer1"
     transform="translate(-24.240016,-53.921728)"
     style="display:inline">
    <path
       style="fill:#ff6565;stroke:none;stroke-width:0.101475;filter:url(#filter1281)"
       d="m 142.30812,169.39241 c -3.03511,10.77359 -5.56996,21.68824 -8.56651,32.47198 -0.93662,3.36795 -1.83568,6.7562 -2.68401,10.14749 -0.38967,1.55662 -1.13652,3.24111 -0.89603,4.87079 0.44548,3.02091 3.36288,3.14573 5.75363,3.14573 h 10.95929 c 2.87885,0 5.6278,-0.0223 7.4645,-2.63835 0.73975,-1.05433 0.92849,-2.4283 1.25017,-3.6531 0.49926,-1.89656 1.02388,-3.78603 1.52212,-5.68259 1.70072,-6.467 3.47552,-12.91472 5.17522,-19.38171 5.88352,-22.37421 11.72036,-44.78566 17.91439,-67.07493 2.72866,-9.81546 5.22799,-19.69536 7.88764,-29.529198 0.60074,-2.22159 1.71696,-4.793371 1.70986,-7.103244 -0.004,-1.14413 -0.35009,-2.378471 -1.31918,-3.081083 -1.43587,-1.040017 -3.90171,-0.572014 -5.58112,-0.572014 -3.27865,0 -6.55832,0.101475 -9.84307,0.101475 -2.68198,0 -4.96922,-0.225782 -6.95813,1.937054 -1.31512,1.429173 -1.6855,3.248111 -2.16243,5.064715 -0.61393,2.334735 -1.20958,4.679415 -1.86816,7.00177 -0.2963,1.042553 -0.53477,2.101444 -0.82499,3.145722 -0.0974,0.348566 -0.16033,0.904142 -0.49316,1.113383 -0.43026,0.270837 -1.30599,0.104316 -1.79814,0.104316 h -4.66785 c -5.81857,0 -11.64323,-0.03196 -17.45368,-0.101069 -21.33663,-0.253687 -42.692333,-4.06e-4 -64.030683,-4.06e-4 0.475105,-3.528587 1.84593,-7.108927 2.751594,-10.553391 1.859122,-7.070976 3.812616,-14.120743 5.607301,-21.208259 0.617678,-2.439254 1.259406,-4.881776 1.933098,-7.306194 0.45136,-1.624086 0.997904,-3.212392 0.355872,-4.870796 -0.932148,-2.408048 -4.119679,-1.725074 -6.182968,-1.725074 h -9.741593 c -1.557945,0 -3.339033,-0.239578 -4.870797,0.04745 -1.48884,0.27897 -3.046988,1.688964 -3.570801,3.098268 -1.42826,3.842916 -2.173289,8.108759 -3.216248,12.075515 -1.940302,7.379459 -3.945345,14.741972 -5.885546,22.121533 -5.481675,20.848627 -11.382138,41.602987 -16.640822,62.508547 -2.390526,9.50313 -5.119136,18.92204 -7.559568,28.41299 -0.734905,2.85855 -3.186678,7.87039 0.240537,9.90901 1.432947,0.85139 3.663285,0.44142 5.276696,0.44142 3.216248,0 6.431379,-0.0213 9.640118,-0.10046 2.290492,-0.0558 4.297767,0.22324 6.18997,-1.35368 2.312208,-1.92599 2.624446,-5.09504 3.360444,-7.88155 0.930322,-3.5222 1.893624,-7.03628 2.84485,-10.5534 0.185394,-0.68495 0.467697,-3.10614 1.213437,-3.3162 0.769281,-0.21715 1.828984,-0.0325 2.627287,-0.0325 h 5.784071 18.671386 60.682005 m 12.68437,-47.89616 c -0.20295,2.4835 -1.30599,5.09901 -1.9402,7.50914 -1.62157,6.16714 -3.66832,12.32718 -4.9601,18.56991 H 59.809006 l 1.682049,-6.39292 3.557,-12.98879 1.341499,-4.87079 0.579929,-1.72223 1.667842,-0.10432 h 4.363422 16.946312 z"
       id="path1144" />
  </g>
</svg>
